<?xml version="1.0" encoding="utf-8"?>
<!-- Generator: Adobe Illustrator 16.0.0, SVG Export Plug-In . SVG Version: 6.00 Build 0)  -->
<!DOCTYPE svg PUBLIC "-//W3C//DTD SVG 1.1//EN" "http://www.w3.org/Graphics/SVG/1.1/DTD/svg11.dtd">
<svg version="1.1" id="Layer_1" xmlns="http://www.w3.org/2000/svg" xmlns:xlink="http://www.w3.org/1999/xlink" x="0px" y="0px"
	 width="512px" height="512px" viewBox="0 0 512 512" enable-background="new 0 0 512 512" xml:space="preserve">
<path fill-rule="evenodd" clip-rule="evenodd" fill="#010101" d="M480,0H32C14.313,0,0,14.328,0,32v304c0,17.688,14.313,32,32,32
	h192v19.906c-37.188,8.844-64,32.281-64,60.094c0,35.344,43,64,96,64c53.031,0,96-28.656,96-64c0-27.813-26.781-51.281-64-60.094
	V368h192c17.688,0,32-14.313,32-32V32C512,14.328,497.688,0,480,0z M304,432c0,17.688-21.5,32-48,32s-48-14.313-48-32
	c0-9.438,6.25-17.844,16-23.688V432h64v-23.688C297.75,414.156,304,422.563,304,432z M480,288c0,17.688-14.313,32-32,32H64
	c-17.688,0-32-14.313-32-32V64c0-17.688,14.313-32,32-32h384c17.688,0,32,14.313,32,32V288z"/>
</svg>
